<svg version="1.1" id="Capa_1" xmlns="http://www.w3.org/2000/svg" x="0" y="0" viewBox="0 0 487.622 487.622" xml:space="preserve"><circle cx="243.811" cy="243.811" r="243.811" fill="#eed26a"/><circle cx="243.811" cy="243.811" r="243.811" fill="#c4e15e"/><path d="M487.403 253.759L317.096 119.431l-120.46 49.004-55.887 176.435 168.815 133.771c99.649-27.845 173.522-117.405 177.839-224.882z" fill="#c4e15e"/><path d="M487.403 253.759L317.096 119.431l-120.46 49.004-55.887 176.435 168.815 133.771c99.649-27.845 173.522-117.405 177.839-224.882z" opacity=".37" fill="#b5d24f"/><path d="M243.814 388.172c79.725 0 144.358-64.634 144.358-144.361S323.538 99.45 243.814 99.45c-79.73 0-144.364 64.634-144.364 144.361s64.633 144.361 144.364 144.361zm-39.255-207.848l105.152 63.487-105.152 63.486V180.324z" fill="#fff"/></svg>