<svg height="448pt" viewBox="0 0 448 448.04" width="448pt" xmlns="http://www.w3.org/2000/svg"><path d="M120.02 148.305v43.734a8 8 0 0 0 16 0v-31.437a8.001 8.001 0 0 1 5.93-7.73l40-10.712a7.863 7.863 0 0 1 6.933 1.383 7.999 7.999 0 0 1 3.137 6.336v90.16h64V165.32c0-2.12.843-4.156 2.343-5.656l79.2-79.2a8.131 8.131 0 0 0 2.292-5.948 8.159 8.159 0 0 0-2.707-5.774 8.74 8.74 0 0 0-11.64 1.13l-58.711 58.702a7.995 7.995 0 0 1-7.113 2.207 7.994 7.994 0 0 1-5.848-4.605 23.9 23.9 0 0 0-21.816-14.137h-16a23.687 23.687 0 0 0-17.696 7.8 8.099 8.099 0 0 1-3.824 2.329l-68.55 18.398a8.006 8.006 0 0 0-5.93 7.739zM.02 256.04h448v192H.02zm0 0"/><path d="M32.02 224.04a8 8 0 0 0 8 8h112a8 8 0 0 0 0-16h-112a8 8 0 0 0-8 8zm256 0a8 8 0 0 0 8 8h112a8 8 0 0 0 0-16h-112a8 8 0 0 0-8 8zM247.27 50.367c-.114-.465-.282-.91-.426-1.367a24.404 24.404 0 0 0-1.77-4.238 23.947 23.947 0 0 0-26.918-11.91 23.953 23.953 0 0 0-18.136 23.187 21.15 21.15 0 0 0 .746 5.832 23.94 23.94 0 0 0 23.398 18.176c11.059-.074 20.629-7.715 23.152-18.488.477-1.801.711-3.657.704-5.52a23.35 23.35 0 0 0-.75-5.672zm0 0"/><path d="M255.813 32.04h7.406C259.434 13.397 243.043 0 224.019 0c-19.023 0-35.414 13.398-39.199 32.04h7.254a39.732 39.732 0 0 1 63.73 0zm-79.793 24h8c.027-2.384.27-4.759.73-7.095.055-.297 0-.61.094-.906h-8.824zm96 0v-8h-8.801c.535 2.632.804 5.312.8 8zm0 0"/></svg>