<svg version="1.1" id="Capa_1" xmlns="http://www.w3.org/2000/svg" x="0" y="0" viewBox="0 0 511.999 511.999" xml:space="preserve"><path d="M475.883 6.954c-.01-.11-.032-.217-.047-.326-.02-.14-.037-.281-.064-.421-.025-.127-.06-.25-.092-.375-.03-.119-.057-.239-.092-.357-.037-.122-.083-.241-.127-.361-.042-.117-.08-.236-.129-.352-.046-.112-.102-.22-.153-.33-.056-.118-.108-.238-.17-.353-.057-.106-.121-.208-.183-.311-.067-.112-.131-.226-.205-.336-.076-.114-.162-.222-.244-.331-.069-.092-.133-.186-.206-.276a7.86 7.86 0 0 0-.483-.534c-.01-.01-.018-.022-.029-.032l-.036-.033a7.731 7.731 0 0 0-.529-.478c-.088-.073-.182-.136-.274-.205-.11-.082-.218-.168-.332-.245-.107-.071-.218-.134-.327-.199-.107-.064-.212-.131-.322-.19-.109-.059-.221-.107-.332-.159-.117-.056-.234-.114-.354-.164-.106-.043-.214-.079-.321-.117-.131-.047-.259-.097-.392-.137-.104-.032-.21-.055-.316-.081-.139-.036-.276-.074-.418-.102-.115-.023-.23-.035-.346-.052-.134-.021-.265-.044-.401-.058a7.302 7.302 0 0 0-.573-.029c-.06-.002-.12-.01-.182-.01H50.977c-.062 0-.121.008-.183.009-.191.004-.383.01-.573.029-.136.013-.268.038-.401.058-.115.017-.23.03-.346.052-.142.028-.279.067-.418.102-.105.027-.211.049-.315.081-.134.04-.262.09-.392.137-.107.039-.215.074-.321.117-.12.049-.237.108-.354.164-.111.052-.223.102-.332.159-.11.059-.216.127-.323.19-.109.066-.219.127-.326.198-.115.077-.224.163-.334.246-.091.071-.184.134-.273.207-.184.151-.36.311-.529.478l-.036.033-.029.032c-.169.171-.33.348-.483.534-.073.089-.137.183-.206.276-.082.11-.168.217-.244.331-.073.11-.137.223-.205.336-.062.103-.127.205-.183.311-.062.115-.114.234-.17.352-.052.11-.107.219-.154.332-.047.115-.085.233-.128.349-.043.12-.09.24-.128.363-.036.118-.062.238-.092.357-.031.125-.066.248-.092.375-.028.139-.044.28-.064.421-.015.109-.036.216-.047.326a7.81 7.81 0 0 0-.038.766v137.554c0 4.263 3.455 7.717 7.717 7.717s7.717-3.454 7.717-7.717V26.346l18.803 18.803v200.248L58.694 264.2v-88.79a7.717 7.717 0 1 0-15.434-.001v107.417c0 .255.013.51.038.765.01.11.032.217.047.326.02.14.037.281.064.421.025.127.06.25.092.375.03.119.057.239.092.357.037.123.083.242.127.363.042.117.08.235.128.35.047.113.102.221.153.331.056.118.108.237.17.353.057.106.121.208.183.311.067.112.131.226.205.336.076.114.161.222.244.331.069.092.133.186.206.276.152.185.314.363.483.534l.029.032.036.033c.169.167.345.327.529.478.089.073.183.137.275.205.11.082.218.168.332.244.108.072.221.135.332.202.105.063.208.129.316.187.113.061.229.112.346.167.112.053.223.109.339.157.113.046.228.084.343.126.123.044.245.092.37.13.114.034.229.06.345.089.129.033.256.069.388.095.133.027.268.042.401.062.115.016.227.038.344.049.253.025.507.038.761.038h417.23c.254 0 .508-.013.761-.038.116-.011.228-.033.344-.049.135-.02.27-.035.402-.062.132-.026.258-.062.387-.095.115-.029.23-.055.345-.089.125-.038.247-.085.37-.13.114-.041.229-.079.343-.126.115-.048.226-.104.339-.157.115-.055.232-.106.346-.167.108-.058.21-.123.315-.186.111-.067.224-.13.333-.203.114-.076.221-.16.33-.243.092-.069.186-.133.276-.206.184-.151.36-.311.529-.478l.036-.033c.01-.01.018-.022.029-.032.169-.171.33-.348.483-.534.073-.09.137-.183.206-.276.082-.11.168-.217.244-.331.073-.11.137-.223.205-.336.062-.103.127-.205.183-.311.062-.116.115-.236.171-.354.051-.109.106-.217.153-.329.048-.116.086-.235.129-.353.043-.12.088-.238.127-.361.036-.118.062-.238.092-.357.031-.125.066-.248.092-.375.028-.139.044-.28.064-.421.015-.109.036-.216.047-.326.025-.254.038-.509.038-.765V7.72c-.006-.255-.02-.511-.044-.766zM69.607 15.433h379.969l-18.802 18.802H88.41L69.607 15.433zm0 259.678l18.803-18.802h342.365l18.803 18.802H69.607zm201.949-79.963l-9.489-12.695 61.956-60.177c1.003-.974 2.574-.975 3.521-.063l98.711 97.419v21.243h-325.32l92.358-119.457c.685-.79 1.546-.915 1.998-.882.468.01 1.35.158 2.003 1.032l61.9 82.819a7.717 7.717 0 0 0 12.362-9.239zm188.935 69.05l-18.803-18.803v-138.95c0-4.263-3.455-7.717-7.717-7.717s-7.717 3.454-7.717 7.717v91.505l-87.928-86.778a17.929 17.929 0 0 0-25.056.033l-60.52 58.782-43.095-57.658a17.9 17.9 0 0 0-14.018-7.222c-5.556-.135-10.794 2.276-14.328 6.585-.046.057-.093.114-.138.172L92.93 225.995V49.668h333.325v25.911c0 4.263 3.455 7.717 7.717 7.717s7.717-3.454 7.717-7.717V45.148l18.803-18.803v237.853zm2.637 118.511h-6.257c6.982-7.958 11.228-18.373 11.228-29.767 0-24.924-20.276-45.2-45.2-45.2-24.924 0-45.2 20.276-45.2 45.2 0 11.394 4.246 21.808 11.228 29.767h-6.257c-11.059 0-20.057 8.996-20.057 20.056s8.998 20.056 20.057 20.056h2.53v9.204H126.798v-4.915h2.53c11.059 0 20.057-8.996 20.057-20.056s-8.998-20.056-20.057-20.056h-6.257c6.982-7.958 11.228-18.373 11.228-29.766 0-24.924-20.276-45.2-45.2-45.2-24.924 0-45.2 20.276-45.2 45.2 0 11.394 4.246 21.808 11.228 29.766H48.87c-11.059 0-20.056 8.997-20.056 20.056s8.998 20.056 20.056 20.056h2.531v15.116c0 4.263 3.455 7.717 7.717 7.717s7.717-3.454 7.717-7.717V427.11h44.529v66.884a2.575 2.575 0 0 1-2.572 2.572H69.408a2.575 2.575 0 0 1-2.572-2.572v-15.756c0-4.263-3.455-7.717-7.717-7.717s-7.717 3.454-7.717 7.717v15.756c0 9.928 8.078 18.005 18.005 18.005h39.384c9.928 0 18.005-8.078 18.005-18.005v-19.531H385.2v15.242c0 9.928 8.078 18.005 18.005 18.005h39.384c9.928 0 18.005-8.078 18.005-18.005V422.82h2.531c11.059 0 20.056-8.997 20.056-20.056s-8.995-20.055-20.053-20.055zM89.099 327.465c16.414 0 29.766 13.354 29.766 29.766 0 16.413-13.353 29.767-29.766 29.767-16.414 0-29.767-13.354-29.767-29.767.001-16.412 13.354-29.766 29.767-29.766zm29.982 84.212h-70.21a4.628 4.628 0 0 1-4.623-4.623 4.628 4.628 0 0 1 4.623-4.623h80.456a4.629 4.629 0 0 1 4.624 4.623 4.629 4.629 0 0 1-4.624 4.623h-10.246zm266.121 47.353H126.798v-11.571h258.404v11.571zM422.9 323.176c16.414 0 29.767 13.354 29.767 29.766 0 16.413-13.353 29.767-29.767 29.767s-29.766-13.354-29.766-29.767c-.001-16.412 13.352-29.766 29.766-29.766zm22.263 166.529a2.575 2.575 0 0 1-2.572 2.572h-39.384a2.575 2.575 0 0 1-2.572-2.572v-66.883h44.529v66.883zm17.965-82.317h-80.457a4.629 4.629 0 0 1-4.624-4.623 4.629 4.629 0 0 1 4.624-4.623h80.456a4.628 4.628 0 0 1 4.623 4.623 4.628 4.628 0 0 1-4.622 4.623z"/><path d="M253.455 57.595c-15.589 0-28.272 12.683-28.272 28.273s12.683 28.273 28.272 28.273c15.59 0 28.273-12.683 28.273-28.273-.001-15.59-12.684-28.273-28.273-28.273zm0 41.113c-7.079 0-12.838-5.76-12.838-12.839s5.76-12.839 12.838-12.839c7.08 0 12.839 5.76 12.839 12.839s-5.76 12.839-12.839 12.839z"/></svg>