<svg version="1.1" id="Capa_1" xmlns="http://www.w3.org/2000/svg" x="0" y="0" viewBox="0 0 512 512" xml:space="preserve"><path d="M321.473 42.621C312 33.14 299.401 27.918 285.996 27.919c-10.958 0-21.375 3.489-29.985 9.941-8.619-6.453-19.042-9.941-30-9.941-13.405 0-26.006 5.221-35.478 14.7-19.559 19.557-19.56 51.387 0 70.958l59.995 59.977c1.515 1.514 3.5 2.272 5.485 2.272s3.971-.758 5.485-2.273l59.974-59.979c19.556-19.569 19.555-51.399.001-70.953zM310.5 102.606l-54.487 54.492-54.507-54.491c-13.512-13.519-13.513-35.507 0-49.018 6.543-6.549 15.246-10.155 24.505-10.155 9.26 0 17.967 3.607 24.518 10.157a7.755 7.755 0 0 0 5.485 2.272h.003a7.755 7.755 0 0 0 5.486-2.276c6.537-6.548 15.236-10.153 24.493-10.153 9.258 0 17.96 3.606 24.504 10.157 13.509 13.508 13.508 35.497 0 49.015zm48.934 76.343c-38.782 0-75.242 14.313-103.496 40.467-27.203-25.104-63.525-40.467-103.372-40.467C68.441 178.949 0 247.39 0 331.515s68.441 152.566 152.566 152.566c38.78 0 75.24-14.313 103.496-40.467 27.203 25.104 63.525 40.467 103.373 40.467 84.125 0 152.565-68.44 152.565-152.566s-68.44-152.566-152.566-152.566zM152.565 468.562c-75.569.004-137.05-61.477-137.05-137.047s61.481-137.051 137.051-137.051 137.05 61.481 137.05 137.051c0 24.087-6.222 47.418-18.076 68.078a110.393 110.393 0 0 1-6.615-9.488 125.938 125.938 0 0 0 10.023-25.675c2.876-10.685 4.324-21.763 4.324-32.913 0-17.108-3.352-33.699-9.961-49.317a126.1 126.1 0 0 0-24.159-37.171c-.043-.046-.084-.093-.129-.138a129.043 129.043 0 0 0-2.864-2.969c-11.636-11.636-25.186-20.77-40.277-27.152-15.619-6.609-32.209-9.961-49.317-9.961a127.345 127.345 0 0 0-30.948 3.806 125.97 125.97 0 0 0-28.175 10.809 126.209 126.209 0 0 0-24.473 16.871 127.495 127.495 0 0 0-19.828 22 7.691 7.691 0 0 0-1.314 5.792 7.707 7.707 0 0 0 3.155 5.027 7.736 7.736 0 0 0 4.478 1.427 7.793 7.793 0 0 0 6.341-3.269c10.085-14.211 23.531-26.023 38.881-34.133a110.543 110.543 0 0 1 24.721-9.474c8.833-2.224 17.967-3.341 27.162-3.341 15.019 0 29.582 2.937 43.277 8.73 12.557 5.31 23.892 12.827 33.761 22.314-14.887 24.059-22.735 51.627-22.735 80.146 0 29.366 8.348 56.815 22.783 80.115a112.092 112.092 0 0 1-12.574 10.453 111.064 111.064 0 0 1-19.456 11.119c-14.202 6.3-29.365 9.506-45.056 9.506-13.55 0-26.79-2.41-39.346-7.168a110.555 110.555 0 0 1-28.941-16.271 111.8 111.8 0 0 1-22.735-23.862c-13.199-18.774-20.17-40.868-20.17-63.892 0-13.312 2.327-26.334 6.92-38.695 1.489-4.013-.569-8.482-4.582-9.971a7.777 7.777 0 0 0-2.7-.486 7.795 7.795 0 0 0-7.272 5.058c-5.233 14.088-7.881 28.93-7.881 44.094.01 26.241 7.954 51.417 22.993 72.797a126.951 126.951 0 0 0 25.9 27.203 126.018 126.018 0 0 0 32.975 18.535c14.315 5.42 29.396 8.172 44.839 8.172l.021-.052v.052c17.853 0 35.126-3.652 51.334-10.839a127.008 127.008 0 0 0 34.676-22.847 154.347 154.347 0 0 0 6.602 7.984c-25.335 23.296-57.95 36.043-92.633 36.043zm111.193-137.045c0 9.806-1.273 19.528-3.786 28.889a110.358 110.358 0 0 1-3.982 11.982c-5.141-12.99-7.747-26.727-7.747-40.871a111.53 111.53 0 0 1 3.785-28.9 110.566 110.566 0 0 1 3.977-11.97c5.147 12.996 7.753 26.731 7.753 40.87zm95.676 137.049c-75.57 0-137.051-61.481-137.051-137.051 0-24.086 6.222-47.418 18.075-68.078a110.901 110.901 0 0 1 6.608 9.481 126.3 126.3 0 0 0-10.016 25.676 126.8 126.8 0 0 0-4.323 32.923c0 17.108 3.351 33.699 9.961 49.317 5.832 13.791 13.968 26.289 24.205 37.22.021.022.04.046.062.067a131.028 131.028 0 0 0 2.885 2.991c11.636 11.636 25.186 20.77 40.277 27.152 15.619 6.609 32.21 9.961 49.328 9.961 10.468 0 20.884-1.283 30.947-3.817a126.003 126.003 0 0 0 28.166-10.798 127.134 127.134 0 0 0 24.472-16.871 127.5 127.5 0 0 0 19.829-22c2.472-3.496 1.645-8.347-1.841-10.819a7.77 7.77 0 0 0-10.819 1.842c-10.085 14.211-23.531 26.013-38.892 34.133a110.306 110.306 0 0 1-24.71 9.475 111.836 111.836 0 0 1-27.162 3.34c-15.019 0-29.583-2.947-43.288-8.74-12.545-5.311-23.88-12.827-33.749-22.312 14.886-24.058 22.733-51.624 22.733-80.142 0-29.368-8.35-56.819-22.787-80.12a112.449 112.449 0 0 1 12.578-10.456 111.896 111.896 0 0 1 19.456-11.119c14.212-6.299 29.366-9.495 45.057-9.495 13.549 0 26.789 2.41 39.346 7.158.051.021.103.041.144.051l.021.011a111.17 111.17 0 0 1 28.879 16.291 111.77 111.77 0 0 1 22.673 23.862c13.178 18.753 20.138 40.826 20.128 63.819 0 13.312-2.327 26.334-6.92 38.695a7.702 7.702 0 0 0 .228 5.926 7.656 7.656 0 0 0 4.343 4.044c.88.321 1.78.487 2.7.487a7.799 7.799 0 0 0 7.282-5.059c5.233-14.108 7.882-28.94 7.882-44.094-.01-26.242-7.955-51.417-22.994-72.807a126.852 126.852 0 0 0-25.889-27.193 126.493 126.493 0 0 0-32.986-18.547c-14.315-5.419-29.406-8.161-44.838-8.161h-.01c-17.854 0-35.126 3.641-51.335 10.84a125.514 125.514 0 0 0-22.186 12.671 127.38 127.38 0 0 0-12.499 10.172 153.855 153.855 0 0 0-6.603-7.984c25.333-23.297 57.949-36.045 92.633-36.045 75.57 0 137.051 61.481 137.051 137.051 0 75.571-61.481 137.052-137.051 137.052z"/></svg>