<svg version="1.1" id="Layer_1" xmlns="http://www.w3.org/2000/svg" x="0" y="0" viewBox="0 0 511.999 511.999" xml:space="preserve"><path d="M259.858 411.656c3.161 8.504 11.221 13.762 19.79 13.762 2.442 0 4.927-.427 7.351-1.328 10.929-4.062 16.496-16.214 12.433-27.142l-16.03-43.134h-40.766v-16.476h47.623c6.065 0 10.982-4.917 10.982-10.982 0-5.988-4.858-10.982-10.982-10.982v-56.182c1.788 0 3.47-.437 4.962-1.194.482-4.494 2.509-8.759 5.803-11.962-1.012-5.036-5.453-8.808-10.765-8.808h-78.244l49.086-24.956a28.5 28.5 0 0 1-19.426-2.146l-36.195 28.357c1.81 6.67 2.693 13.713 2.42 20.711-.634 16.309-7.456 31.157-19.91 40.915-5.741 4.498-12.287 7.59-19.246 9.272l15.37 27.961h36.555v82.541l-14.545 14.547 1.396 29.668 24.14-24.142 50.267 50.28c4.29 4.289 11.244 4.29 15.532.002 4.289-4.288 4.29-11.242.002-15.532l-54.827-54.842v-54.549l17.224 46.341zm180.295-139.975l-5.45-.382v79.255l23.06-48.794c6.342-13.423-2.814-29.041-17.61-30.079zm-121.003 7.166a19.413 19.413 0 0 1-12.416-1.053v26.611c1.703 1.282 3.3 3.325 4.588 4.865h68.469v-45.384l-60.641 14.961zM355.157 3.322a5.498 5.498 0 0 0-7.226-2.871l-86.207 37.171c-9.089-2.874-18.85 2.008-21.947 11.074l-24.766 72.535a17.534 17.534 0 0 0-.246 10.56 28.631 28.631 0 0 1 10.16-4.531 28.319 28.319 0 0 1 7.901-9.668 28.61 28.61 0 0 1 17.568-6.064c1.682 0 3.336.162 4.957.443l17.723-51.907a17.55 17.55 0 0 0 .929-5.807l78.785-43.956c2.419-1.361 3.493-4.371 2.369-6.979zm151.859 113.203c-3.824-6.484-11.157-9.596-18.159-8.382l-53.809-81.317c-1.541-2.31-4.623-3.154-7.137-1.836a5.498 5.498 0 0 0-2.318 7.422l44.724 85.33-40.878 24.104c-56.959 1.064-54.428 1.155-54.428 1.155l-72.608-1.152c.405 2.39.524 4.809.369 7.21a31.223 31.223 0 0 1-2.538 10.508c3.344 8.933 1.959 19.058-3.678 26.793a27.772 27.772 0 0 1-6.091 6.135l-.448 28.259h.244c11.11 0 20.692 6.636 25.01 16.15l19.558-11.682a194.995 194.995 0 0 1 45.072-19.696 27.247 27.247 0 0 1 3.735-11.606l.255-16.031 50.831-.95a17.587 17.587 0 0 0 8.606-2.436l57.471-33.889c8.369-4.935 11.153-15.721 6.217-24.089z"/><circle cx="338.657" cy="92.15" r="36.46"/><path d="M507.242 212.881a2.95 2.95 0 0 0-2.775-2.669l-35.233-1.927a178.457 178.457 0 0 0-51.005 4.574v-4.951c0-6.162-5.052-10.982-10.982-10.982-6.059 0-10.982 4.953-10.982 10.982v10.345c-17.705 4.368-33.929 9.725-52.988 21.11l-30.293 18.094a2.949 2.949 0 0 0 2.218 5.396l81.062-20.001v162.214l-69.642 69.635c-4.29 4.288-4.29 11.242-.001 15.531 4.288 4.289 11.243 4.29 15.531 0l54.112-54.105v13.484c0 6.065 4.917 10.982 10.982 10.982 6.065 0 10.982-4.917 10.982-10.982v-13.484l54.104 54.105c4.29 4.289 11.244 4.288 15.532 0 4.289-4.289 4.289-11.243 0-15.531l-69.636-69.636V237.432l86.784-21.412a2.948 2.948 0 0 0 2.23-3.139zM48.717 366.536v122.532c0 12.664 10.266 22.931 22.931 22.931 12.665 0 22.931-10.267 22.931-22.931V379.693c-16.183.427-32.054-4.582-45.862-13.157zm144.407 121.453l-5.002-106.32a22.945 22.945 0 0 0-2.81-9.968l-28.726-52.256c-1.605 19.34-10.315 36.824-25.841 48.197l11.815 21.493 4.753 101.01c.594 12.635 11.314 22.421 23.984 21.828 12.649-.595 22.423-11.332 21.827-23.984z"/><circle cx="99.523" cy="84.17" r="39.605"/><path d="M277.79 158.527c3.222-2.524 1.174-.915 1.993-1.572 5.538-4.46 6.191-12.392 2.033-17.7-.016-.02-.033-.037-.05-.057-4.233-5.341-12.115-6.465-17.693-2.157-.023.018-.048.032-.071.05l-1.864 1.46-3.751-4.788c-.013-.017-.028-.03-.041-.047-3.508-4.419-9.882-5.071-14.205-1.686l-.004.003c-4.412 3.457-5.186 9.837-1.729 14.249l3.752 4.788-3.195 2.503-3.752-4.788-.006-.007c-3.445-4.388-9.834-5.177-14.244-1.724-4.412 3.457-5.187 9.837-1.731 14.251l3.752 4.788-59.056 46.267-.06-.049c-23.329-19.815-53.325-16.376-63.213 6.978a27.907 27.907 0 0 1-11.184 12.918l21.76 16.541c7.321-6.033 17.917-4.681 23.578 2.544 5.642 7.202 4.378 17.613-2.824 23.255-3.392 2.657-7.496 3.764-11.478 3.458-.705 6.163-2.943 12.086-6.621 17.294-5.795 8.207-14.625 13.669-24.381 15.318l3.871 4.941c3.457 4.412 2.682 10.793-1.729 14.249-4.414 3.457-10.792 2.683-14.25-1.731l-22.261-28.412-38.815-27.409c-4.892 24.919 6.99 51.867 25.603 69.15 20.8 19.267 52.882 28.003 75.089 10.606 10.499-8.225 16.275-20.629 17.331-34.491.98-12.868 10.666-23.376 23.362-25.41 24.064-3.856 36.138-31.238 21.87-59.776l59.056-46.267 3.752 4.788a.065.065 0 0 1 .007.008c3.646 4.642 10.607 5.274 15.011 1.055l.016-.013c3.665-3.524 4.219-9.391.946-13.569l-3.752-4.788 3.195-2.503 3.752 4.788c3.396 4.335 9.774 5.237 14.25 1.731 4.407-3.452 5.192-9.833 1.731-14.251l-3.75-4.786z"/><path d="M150.923 136.401H48.129c-24.813 0-45.099 20.185-45.222 44.939l-.366 45.585v.016c-.054 6.805 3.147 12.528 8.083 16.013l65.644 46.354c8.599 6.072 20.534 4.05 26.634-4.589 6.088-8.621 4.033-20.545-4.588-26.633l-57.479-40.587.288-35.911v-.002a3.791 3.791 0 0 1 7.582.021v18.992l23.385 16.513c2.259.217 6.407.823 6.931.823a9.477 9.477 0 0 0 8.739-5.795c3.447-8.14 8.635-14.963 15.423-20.28 9.034-7.079 20.172-10.819 32.208-10.818 4.848 0 9.722.608 14.534 1.778v-.147a3.934 3.934 0 0 1 7.528-1.6c.554 1.244.898 2.702.888 4.4a71.685 71.685 0 0 1 8.86 4.154l26.144-20.483c-7.166-20.148-23.135-32.743-42.422-32.743z"/></svg>