<svg xmlns="http://www.w3.org/2000/svg"><symbol id="001-mic" viewBox="0 0 96.667 96.666"><path d="M48.333 73.296c9.519 0 17.263-7.744 17.263-17.262V17.262C65.596 7.743 57.852 0 48.333 0c-9.519 0-17.262 7.743-17.262 17.262v38.773c0 9.518 7.743 17.261 17.262 17.261z"/><path d="M76.078 45.715h-3.437a2 2 0 0 0-2 2v7.029c0 12.3-10.008 22.308-22.309 22.308S26.025 67.044 26.025 54.744v-7.029a2 2 0 0 0-2-2h-3.437a2 2 0 0 0-2 2v7.029c0 14.707 11.433 27.667 26.026 29.506v4.98h-15.35a2 2 0 0 0-2 2v3.436a2 2 0 0 0 2 2h38.138a2 2 0 0 0 2-2V91.23a2 2 0 0 0-2-2H52.051v-4.98c14.594-1.838 26.026-14.799 26.026-29.506v-7.029c.001-1.105-.895-2-1.999-2z"/></symbol><symbol id="001-play" viewBox="0 0 487.622 487.622"><circle cx="243.811" cy="243.811" r="243.811" fill="#eed26a"/><circle cx="243.811" cy="243.811" r="243.811" fill="#c4e15e"/><path d="M487.403 253.759L317.096 119.431l-120.46 49.004-55.887 176.435 168.815 133.771c99.649-27.845 173.522-117.405 177.839-224.882z" fill="#c4e15e"/><path d="M487.403 253.759L317.096 119.431l-120.46 49.004-55.887 176.435 168.815 133.771c99.649-27.845 173.522-117.405 177.839-224.882z" opacity=".37" fill="#b5d24f"/><path d="M243.814 388.172c79.725 0 144.358-64.634 144.358-144.361S323.538 99.45 243.814 99.45c-79.73 0-144.364 64.634-144.364 144.361s64.633 144.361 144.364 144.361zm-39.255-207.848l105.152 63.487-105.152 63.486V180.324z" fill="#fff"/></symbol><symbol id="002-fireworks" viewBox="0 0 306.976 306.976"><path d="M230.879 144.952c-3.426-4.771-4.874-10.757-3.84-16.786l2.061-12.018-8.73-8.51c-.133-.129-.253-.267-.382-.399-66.809 55.733-74.408 145.071-73.68 188.929a3.135 3.135 0 0 0 6.207.576c18.429-89.754 53.282-132.175 78.364-151.792zM99.861 85.018L79.7 89.531l-7.712 19.167c-.14.348-.298.685-.454 1.023 31.466 44.515 47.854 135.4 54.405 181.181a2.073 2.073 0 0 0 4.127-.279c.797-98.746-14.309-164.631-29.555-205.773-.217.054-.43.119-.65.168zm137.881 159.886l-2.857-3.93a22.348 22.348 0 0 1-4.133-10.52c-21.992 5.865-55.074 20.873-65.644 58.833a4.357 4.357 0 0 0 7.784 3.643c11.534-16.727 32.267-38.816 63.187-43.301.017-.048.029-.097.046-.146l1.617-4.579zM80.479 206.57a22.393 22.393 0 0 1-7.904 6.851l-4.309 2.241-.597 4.82a22.663 22.663 0 0 1-.943 4.21c18.465 20.857 32.072 49.507 40.295 70.078a2.906 2.906 0 0 0 5.563-1.567c-7.281-42.993-20.016-69.918-32.105-86.633zm170.111-97.404l-3.839 22.381a2.372 2.372 0 0 0 3.443 2.501l20.1-10.567 20.099 10.567a2.373 2.373 0 0 0 3.443-2.501l-3.839-22.381 16.261-15.851a2.374 2.374 0 0 0-1.315-4.048l-22.472-3.265-10.05-20.363a2.374 2.374 0 0 0-4.256 0l-10.05 20.363-22.472 3.265a2.373 2.373 0 0 0-1.316 4.048l16.263 15.851zM95.493 65.501a2.372 2.372 0 0 0 1.005-4.136L72.588 41.36l2.925-31.037a2.375 2.375 0 0 0-3.622-2.234L45.476 24.647 16.861 12.275a2.369 2.369 0 0 0-2.478.369 2.372 2.372 0 0 0-.765 2.386l7.585 30.238-20.61 23.39a2.372 2.372 0 0 0 1.619 3.936l31.102 2.131 15.877 26.829a2.374 2.374 0 0 0 4.245-.322l11.637-28.921 30.42-6.81zM302.251 235.51a2.373 2.373 0 0 0-1.616-1.915l-14.62-4.745-4.379-14.734a2.372 2.372 0 0 0-4.195-.718l-9.031 12.439-15.366-.388-.06-.001a2.373 2.373 0 0 0-1.919 3.768l9.039 12.433-5.118 14.495a2.372 2.372 0 0 0 2.972 3.047l14.618-4.755 12.204 9.346a2.374 2.374 0 0 0 3.816-1.885l-.005-15.371 12.66-8.718a2.379 2.379 0 0 0 1-2.298zM63.347 195.678a2.374 2.374 0 0 0-.09-4.256l-13.925-6.51-2.531-15.161a2.373 2.373 0 0 0-4.074-1.229l-10.494 11.232-15.202-2.278a2.371 2.371 0 0 0-2.428 3.496l7.439 13.452-6.864 13.754a2.375 2.375 0 0 0 2.574 3.39l15.092-2.918 10.96 10.778a2.372 2.372 0 0 0 4.019-1.4l1.889-15.255 13.635-7.095zM164.224 67.025l-1.845-4.493-4.748-1.027a22.386 22.386 0 0 1-9.427-4.526c-7.651 20.35-13.008 51.827-7.374 99.172.303 2.548 4.02 2.518 4.262-.036 2.083-21.962 7.451-57.474 21.156-85.27a22.545 22.545 0 0 1-2.024-3.82zm6.769-54.437l1.552 15.293-11.718 9.948a2.371 2.371 0 0 0 1.034 4.129l15.024 3.25 5.84 14.219a2.372 2.372 0 0 0 4.246.293l7.734-13.284 15.328-1.16a2.372 2.372 0 0 0 1.59-3.948l-10.244-11.46 3.633-14.936a2.372 2.372 0 0 0-3.264-2.733L187.683 18.4 174.6 10.329a2.368 2.368 0 0 0-2.506.009 2.372 2.372 0 0 0-1.101 2.25z"/></symbol><symbol id="002-whatsapp-logo" viewBox="0 0 90 90"><path id="WhatsApp" d="M90 43.841c0 24.213-19.779 43.841-44.182 43.841a44.256 44.256 0 0 1-21.357-5.455L0 90l7.975-23.522a43.38 43.38 0 0 1-6.34-22.637C1.635 19.628 21.416 0 45.818 0 70.223 0 90 19.628 90 43.841zM45.818 6.982c-20.484 0-37.146 16.535-37.146 36.859 0 8.065 2.629 15.534 7.076 21.61L11.107 79.14l14.275-4.537A37.122 37.122 0 0 0 45.819 80.7c20.481 0 37.146-16.533 37.146-36.857S66.301 6.982 45.818 6.982zm22.311 46.956c-.273-.447-.994-.717-2.076-1.254-1.084-.537-6.41-3.138-7.4-3.495-.993-.358-1.717-.538-2.438.537-.721 1.076-2.797 3.495-3.43 4.212-.632.719-1.263.809-2.347.271-1.082-.537-4.571-1.673-8.708-5.333-3.219-2.848-5.393-6.364-6.025-7.441-.631-1.075-.066-1.656.475-2.191.488-.482 1.084-1.255 1.625-1.882.543-.628.723-1.075 1.082-1.793.363-.717.182-1.344-.09-1.883-.27-.537-2.438-5.825-3.34-7.977-.902-2.15-1.803-1.792-2.436-1.792-.631 0-1.354-.09-2.076-.09s-1.896.269-2.889 1.344c-.992 1.076-3.789 3.676-3.789 8.963 0 5.288 3.879 10.397 4.422 11.113.541.716 7.49 11.92 18.5 16.223C58.2 65.771 58.2 64.336 60.186 64.156c1.984-.179 6.406-2.599 7.312-5.107.9-2.512.9-4.663.631-5.111z"/></symbol><symbol id="003-group" viewBox="0 0 297 297"><path d="M46.169 61.873a7.484 7.484 0 0 0 10.488-1.408c22.071-28.917 55.546-45.5 91.843-45.5s69.772 16.584 91.843 45.5a7.471 7.471 0 0 0 5.954 2.942 7.485 7.485 0 0 0 5.942-12.022C227.312 18.729 189.501 0 148.5 0S69.688 18.729 44.762 51.385a7.484 7.484 0 0 0 1.407 10.488zm181.868 39.913c0 12.885 10.484 23.369 23.369 23.369s23.369-10.484 23.369-23.369-10.484-23.369-23.369-23.369-23.369 10.483-23.369 23.369zm47.285 31.124c-.054-.018-5.942-1.825-5.942-1.825a6.993 6.993 0 0 0-6.233 1.086l-11.741 8.791-11.741-8.791a6.989 6.989 0 0 0-6.233-1.086s-5.888 1.807-5.942 1.825a23.136 23.136 0 0 0-15.839 21.976v35.329c0 1.363.398 2.696 1.148 3.834l11.848 18.031v47.352a6.982 6.982 0 0 0 6.983 6.983h39.553a6.982 6.982 0 0 0 6.983-6.983V212.08l11.848-18.031a6.979 6.979 0 0 0 1.148-3.834v-35.329a23.137 23.137 0 0 0-15.84-21.976zm-229.728-7.755c12.885 0 23.369-10.484 23.369-23.369S58.479 78.417 45.594 78.417s-23.37 10.483-23.37 23.369 10.484 23.369 23.37 23.369zm23.916 7.755c-.054-.018-5.942-1.825-5.942-1.825a6.993 6.993 0 0 0-6.233 1.086l-11.741 8.791-11.741-8.791a6.988 6.988 0 0 0-6.233-1.086s-5.888 1.807-5.942 1.825a23.136 23.136 0 0 0-15.839 21.976v35.329c0 1.363.398 2.696 1.148 3.834l11.848 18.031v47.352a6.982 6.982 0 0 0 6.983 6.983H65.37a6.982 6.982 0 0 0 6.983-6.983V212.08l11.848-18.031a6.979 6.979 0 0 0 1.148-3.834v-35.329A23.138 23.138 0 0 0 69.51 132.91z"/><path d="M178.642 68.851c0-16.62-13.522-30.142-30.142-30.142s-30.142 13.522-30.142 30.142c0 16.621 13.522 30.142 30.142 30.142s30.142-13.521 30.142-30.142zm2.965 44.75l-.05-.016-8.603-2.64a2.672 2.672 0 0 0-3.295 1.64l-18.09 49.635c-1.044 2.863-5.093 2.863-6.137 0l-18.09-49.635a2.672 2.672 0 0 0-2.508-1.759c-.259 0-9.38 2.755-9.38 2.755-10.99 3.662-18.332 13.85-18.332 25.37v52.506c0 .521.153 1.031.439 1.467l18.876 28.724v72.68a2.672 2.672 0 0 0 2.672 2.672h58.783a2.672 2.672 0 0 0 2.672-2.672v-72.68l18.876-28.724c.286-.436.439-.946.439-1.467v-52.644a26.533 26.533 0 0 0-18.272-25.212z"/><path d="M155.568 112.556c-.747-.814-1.84-1.224-2.946-1.224h-8.245c-1.105 0-2.198.41-2.946 1.224a3.825 3.825 0 0 0-.504 4.505l4.407 6.644-2.063 17.405 4.063 10.808c.396 1.087 1.933 1.087 2.33 0l4.063-10.808-2.063-17.405 4.407-6.644a3.823 3.823 0 0 0-.503-4.505z"/></symbol><symbol id="003-instagram-logo" viewBox="0 0 169.063 169.063"><path d="M122.406 0H46.654C20.929 0 0 20.93 0 46.655v75.752c0 25.726 20.929 46.655 46.654 46.655h75.752c25.727 0 46.656-20.93 46.656-46.655V46.655C169.063 20.93 148.133 0 122.406 0zm31.657 122.407c0 17.455-14.201 31.655-31.656 31.655H46.654C29.2 154.063 15 139.862 15 122.407V46.655C15 29.201 29.2 15 46.654 15h75.752c17.455 0 31.656 14.201 31.656 31.655v75.752z"/><path d="M84.531 40.97c-24.021 0-43.563 19.542-43.563 43.563 0 24.02 19.542 43.561 43.563 43.561s43.563-19.541 43.563-43.561c0-24.021-19.542-43.563-43.563-43.563zm0 72.123c-15.749 0-28.563-12.812-28.563-28.561 0-15.75 12.813-28.563 28.563-28.563s28.563 12.813 28.563 28.563c0 15.749-12.814 28.561-28.563 28.561zm45.39-84.842c-2.89 0-5.729 1.17-7.77 3.22a11.053 11.053 0 0 0-3.23 7.78c0 2.891 1.18 5.73 3.23 7.78 2.04 2.04 4.88 3.22 7.77 3.22 2.9 0 5.73-1.18 7.78-3.22 2.05-2.05 3.22-4.89 3.22-7.78 0-2.9-1.17-5.74-3.22-7.78-2.04-2.05-4.88-3.22-7.78-3.22z"/></symbol><symbol id="003-instagram" viewBox="0 0 512 512"><path d="M114.759 512h61.103l-96.414-61.793-79.25-46.309C3.659 464.09 53.716 512 114.759 512z" fill="#fde494"/><path d="M335.448 476.69l-69.006-17.655H114.759c-34.072 0-61.793-27.721-61.793-61.793v-33.876l-26.483-28.42L0 339.628v57.613c0 2.236.072 4.454.198 6.657L175.862 512h208.767l-49.181-35.31z" fill="#fea150"/><path d="M441.655 440.14c-11.244 11.637-26.993 18.894-44.414 18.894H266.442L384.629 512h12.612c41.202 0 77.396-21.829 97.64-54.527l-27.022-16.094-26.204-1.239z" fill="#ff5d4a"/><path d="M459.034 326.014v71.228c0 16.652-6.633 31.775-17.379 42.899l53.227 17.333C505.728 439.954 512 419.318 512 397.241v-62.805l-27.396-15.391-25.57 6.969z" fill="#e45261"/><path fill="#ff4d95" d="M512 149.19l-28.203-6.716-24.763 14.826v168.714L512 334.436z"/><path d="M512 114.759c0-57.633-42.708-105.473-98.136-113.55L344.43 30.101l-35.183 22.865h87.994c34.072 0 61.793 27.721 61.793 61.793V157.3L512 149.19v-34.431z" fill="#cb319c"/><path d="M317.732 0L252.05 24.636l-51.805 28.33h109.002L413.864 1.208A115.22 115.22 0 0 0 397.241 0h-79.509z" fill="#8a3293"/><path d="M256 406.069c18.358 0 35.954-3.32 52.226-9.38l-86.02-39.047-91.178-18.657c26.918 40.405 72.885 67.084 124.972 67.084z" fill="#ff5d4a"/><path d="M329.153 305.358c-15.883 23.465-42.748 38.918-73.153 38.918-40.273 0-74.308-27.118-84.867-64.046l-23.682-14.801-40.847 4.538a149.134 149.134 0 0 0 24.425 69.017l177.198 57.705c38.303-14.264 69.237-43.757 85.458-81.068l-31.753-16.085-32.779 5.822z" fill="#e45261"/><path d="M167.724 256c0-21.878 8.018-41.907 21.247-57.346l-37.658-5.268-38.25 16.892A149.478 149.478 0 0 0 105.931 256c0 4.712.244 9.365.671 13.966l64.53 10.262A87.974 87.974 0 0 1 167.724 256zm238.345 0c0-32.138-10.159-61.946-27.428-86.39l-37.397-5.308-38.418 16.917c24.873 15.631 41.45 43.298 41.45 74.781 0 18.27-5.58 35.261-15.123 49.358l64.531 10.262A149.162 149.162 0 0 0 406.069 256z" fill="#ff4d95"/><path d="M256 167.724c17.194 0 33.242 4.959 46.826 13.495l75.815-11.609c-27.196-38.493-72.03-63.679-122.641-63.679-66.81 0-123.554 43.889-142.937 104.345l75.908-11.624c16.202-18.91 40.232-30.928 67.029-30.928zm141.241-17.655c19.47 0 35.31-15.84 35.31-35.31s-15.84-35.31-35.31-35.31c-19.47 0-35.31 15.84-35.31 35.31s15.84 35.31 35.31 35.31z" fill="#cb319c"/><path fill="#ff5d4a" d="M52.966 313.564L27.47 300.847 0 296.316v43.313l52.966 23.737z"/><path fill="#e45261" d="M0 253.014v43.302l52.966 17.248v-52.127l-27.52-9.894z"/><path fill="#ff4d95" d="M52.966 219.479l-27.217-.246L0 227.59v25.424l52.966 8.423z"/><path fill="#cb319c" d="M52.966 179.757l-28.055 2.846L0 205.962v21.628l52.966-8.111z"/><path fill="#8a3293" d="M0 205.962l52.966-26.205v-60.395L21.9 122.333 0 143.241z"/><path d="M205.059 0L84.206 46.481 1.387 96.928A115.22 115.22 0 0 0 0 114.759v28.482l52.966-23.878v-4.605c0-34.072 27.721-61.793 61.793-61.793h85.487L317.732 0H205.059z" fill="#523494"/><path d="M114.759 0C57.545 0 9.978 42.088 1.387 96.928L205.059 0h-90.3z" fill="#2d2d87"/></symbol><symbol id="004-facebook" viewBox="0 0 310 310"><g id="XMLID_834_"><path id="XMLID_835_" d="M81.703 165.106h33.981V305a5 5 0 0 0 5 5H178.3a5 5 0 0 0 5-5V165.765h39.064a5 5 0 0 0 4.967-4.429l5.933-51.502a5 5 0 0 0-4.966-5.572h-44.996V71.978c0-9.732 5.24-14.667 15.576-14.667h29.42a5 5 0 0 0 5-5V5.037a5 5 0 0 0-5-5h-40.545A39.746 39.746 0 0 0 185.896 0c-7.035 0-31.488 1.381-50.804 19.151-21.402 19.692-18.427 43.27-17.716 47.358v37.752H81.703a5 5 0 0 0-5 5v50.844a5 5 0 0 0 5 5.001z"/></g></symbol><symbol id="004-karaoke-microphone-icon" viewBox="0 0 47.5 47.5"><path d="M44.159 3.341A11.375 11.375 0 0 0 36.093 0a11.366 11.366 0 0 0-8.064 3.341c-4.454 4.454-4.454 11.677 0 16.131 2.227 2.227 5.146 3.341 8.064 3.341s5.839-1.114 8.066-3.341c4.454-4.453 4.454-11.676 0-16.131zM22.161 14.999L.646 39.161c-.9 1.011-.854 2.604.103 3.562l1.132 1.133-.723.724a1.226 1.226 0 0 0 0 1.731l.108.108a1.226 1.226 0 0 0 1.733 0l.723-.724 1.055 1.055c.957.957 2.552 1.003 3.563.104l24.155-21.509a14.307 14.307 0 0 1-10.334-10.346zM21.02 29.268l-5.145 5.146a1.97 1.97 0 0 1-2.787-2.787l5.145-5.146a1.97 1.97 0 0 1 2.787 2.787z"/></symbol><symbol id="005-party-dj" viewBox="0 0 448 448.04"><path d="M120.02 148.305v43.734a8 8 0 0 0 16 0v-31.437a8.001 8.001 0 0 1 5.93-7.73l40-10.712a7.863 7.863 0 0 1 6.933 1.383 7.999 7.999 0 0 1 3.137 6.336v90.16h64V165.32c0-2.12.843-4.156 2.343-5.656l79.2-79.2a8.131 8.131 0 0 0 2.292-5.948 8.159 8.159 0 0 0-2.707-5.774 8.74 8.74 0 0 0-11.64 1.13l-58.711 58.702a7.995 7.995 0 0 1-7.113 2.207 7.994 7.994 0 0 1-5.848-4.605 23.9 23.9 0 0 0-21.816-14.137h-16a23.687 23.687 0 0 0-17.696 7.8 8.099 8.099 0 0 1-3.824 2.329l-68.55 18.398a8.006 8.006 0 0 0-5.93 7.739zM.02 256.04h448v192H.02zm0 0"/><path d="M32.02 224.04a8 8 0 0 0 8 8h112a8 8 0 0 0 0-16h-112a8 8 0 0 0-8 8zm256 0a8 8 0 0 0 8 8h112a8 8 0 0 0 0-16h-112a8 8 0 0 0-8 8zM247.27 50.367c-.114-.465-.282-.91-.426-1.367a24.404 24.404 0 0 0-1.77-4.238 23.947 23.947 0 0 0-26.918-11.91 23.953 23.953 0 0 0-18.136 23.187 21.15 21.15 0 0 0 .746 5.832 23.94 23.94 0 0 0 23.398 18.176c11.059-.074 20.629-7.715 23.152-18.488.477-1.801.711-3.657.704-5.52a23.35 23.35 0 0 0-.75-5.672zm0 0"/><path d="M255.813 32.04h7.406C259.434 13.397 243.043 0 224.019 0c-19.023 0-35.414 13.398-39.199 32.04h7.254a39.732 39.732 0 0 1 63.73 0zm-79.793 24h8c.027-2.384.27-4.759.73-7.095.055-.297 0-.61.094-.906h-8.824zm96 0v-8h-8.801c.535 2.632.804 5.312.8 8zm0 0"/></symbol><symbol id="005-vk" viewBox="0 0 304.36 304.36"><g id="XMLID_1_"><path id="XMLID_807_" d="M261.945 175.576c10.096 9.857 20.752 19.131 29.807 29.982 4 4.822 7.787 9.798 10.684 15.394 4.105 7.955.387 16.709-6.746 17.184l-44.34-.02c-11.436.949-20.559-3.655-28.23-11.474-6.139-6.253-11.824-12.908-17.727-19.372-2.42-2.642-4.953-5.128-7.979-7.093-6.053-3.929-11.307-2.726-14.766 3.587-3.523 6.421-4.322 13.531-4.668 20.687-.475 10.441-3.631 13.186-14.119 13.664-22.414 1.057-43.686-2.334-63.447-13.641-17.422-9.968-30.932-24.04-42.691-39.971-22.895-31.021-40.428-65.108-56.186-100.15C-2.01 76.458.584 72.22 9.295 72.07c14.465-.281 28.928-.261 43.41-.02 5.879.086 9.771 3.458 12.041 9.012 7.826 19.243 17.402 37.551 29.422 54.521 3.201 4.518 6.465 9.036 11.113 12.216 5.142 3.521 9.057 2.354 11.476-3.374 1.535-3.632 2.207-7.544 2.553-11.434 1.146-13.383 1.297-26.743-.713-40.079-1.234-8.323-5.922-13.711-14.227-15.286-4.238-.803-3.607-2.38-1.555-4.799 3.564-4.172 6.916-6.769 13.598-6.769h50.111c7.889 1.557 9.641 5.101 10.721 13.039l.043 55.663c-.086 3.073 1.535 12.192 7.07 14.226 4.43 1.448 7.35-2.096 10.008-4.905 11.998-12.734 20.561-27.783 28.211-43.366 3.395-6.852 6.314-13.968 9.143-21.078 2.096-5.276 5.385-7.872 11.328-7.757l48.229.043c1.43 0 2.877.021 4.262.258 8.127 1.385 10.354 4.881 7.844 12.817-3.955 12.451-11.65 22.827-19.174 33.251-8.043 11.129-16.645 21.877-24.621 33.072-7.328 10.223-6.746 15.376 2.357 24.255zm0 0" fill-rule="evenodd" clip-rule="evenodd"/></g></symbol><symbol id="006-check" viewBox="0 0 440.02 440.02"><path d="M327.327 359.861H60V92.532h208.65l60.001-60H0V419.86h387.327V171.846l-60 60.001z"/><path d="M125.735 173.171l-42.427 42.426 101.85 101.851L440.02 62.585l-42.427-42.426-212.435 212.436z"/></symbol><symbol id="006-right-arrow" viewBox="0 0 306 306"><path d="M94.35 0l-35.7 35.7L175.95 153 58.65 270.3l35.7 35.7 153-153z" id="chevron-right"/></symbol><symbol id="007-gallery" viewBox="0 0 511.999 511.999"><path d="M475.883 6.954c-.01-.11-.032-.217-.047-.326-.02-.14-.037-.281-.064-.421-.025-.127-.06-.25-.092-.375-.03-.119-.057-.239-.092-.357-.037-.122-.083-.241-.127-.361-.042-.117-.08-.236-.129-.352-.046-.112-.102-.22-.153-.33-.056-.118-.108-.238-.17-.353-.057-.106-.121-.208-.183-.311-.067-.112-.131-.226-.205-.336-.076-.114-.162-.222-.244-.331-.069-.092-.133-.186-.206-.276a7.86 7.86 0 0 0-.483-.534c-.01-.01-.018-.022-.029-.032l-.036-.033a7.731 7.731 0 0 0-.529-.478c-.088-.073-.182-.136-.274-.205-.11-.082-.218-.168-.332-.245-.107-.071-.218-.134-.327-.199-.107-.064-.212-.131-.322-.19-.109-.059-.221-.107-.332-.159-.117-.056-.234-.114-.354-.164-.106-.043-.214-.079-.321-.117-.131-.047-.259-.097-.392-.137-.104-.032-.21-.055-.316-.081-.139-.036-.276-.074-.418-.102-.115-.023-.23-.035-.346-.052-.134-.021-.265-.044-.401-.058a7.302 7.302 0 0 0-.573-.029c-.06-.002-.12-.01-.182-.01H50.977c-.062 0-.121.008-.183.009-.191.004-.383.01-.573.029-.136.013-.268.038-.401.058-.115.017-.23.03-.346.052-.142.028-.279.067-.418.102-.105.027-.211.049-.315.081-.134.04-.262.09-.392.137-.107.039-.215.074-.321.117-.12.049-.237.108-.354.164-.111.052-.223.102-.332.159-.11.059-.216.127-.323.19-.109.066-.219.127-.326.198-.115.077-.224.163-.334.246-.091.071-.184.134-.273.207-.184.151-.36.311-.529.478l-.036.033-.029.032c-.169.171-.33.348-.483.534-.073.089-.137.183-.206.276-.082.11-.168.217-.244.331-.073.11-.137.223-.205.336-.062.103-.127.205-.183.311-.062.115-.114.234-.17.352-.052.11-.107.219-.154.332-.047.115-.085.233-.128.349-.043.12-.09.24-.128.363-.036.118-.062.238-.092.357-.031.125-.066.248-.092.375-.028.139-.044.28-.064.421-.015.109-.036.216-.047.326a7.81 7.81 0 0 0-.038.766v137.554c0 4.263 3.455 7.717 7.717 7.717s7.717-3.454 7.717-7.717V26.346l18.803 18.803v200.248L58.694 264.2v-88.79a7.717 7.717 0 1 0-15.434-.001v107.417c0 .255.013.51.038.765.01.11.032.217.047.326.02.14.037.281.064.421.025.127.06.25.092.375.03.119.057.239.092.357.037.123.083.242.127.363.042.117.08.235.128.35.047.113.102.221.153.331.056.118.108.237.17.353.057.106.121.208.183.311.067.112.131.226.205.336.076.114.161.222.244.331.069.092.133.186.206.276.152.185.314.363.483.534l.029.032.036.033c.169.167.345.327.529.478.089.073.183.137.275.205.11.082.218.168.332.244.108.072.221.135.332.202.105.063.208.129.316.187.113.061.229.112.346.167.112.053.223.109.339.157.113.046.228.084.343.126.123.044.245.092.37.13.114.034.229.06.345.089.129.033.256.069.388.095.133.027.268.042.401.062.115.016.227.038.344.049.253.025.507.038.761.038h417.23c.254 0 .508-.013.761-.038.116-.011.228-.033.344-.049.135-.02.27-.035.402-.062.132-.026.258-.062.387-.095.115-.029.23-.055.345-.089.125-.038.247-.085.37-.13.114-.041.229-.079.343-.126.115-.048.226-.104.339-.157.115-.055.232-.106.346-.167.108-.058.21-.123.315-.186.111-.067.224-.13.333-.203.114-.076.221-.16.33-.243.092-.069.186-.133.276-.206.184-.151.36-.311.529-.478l.036-.033c.01-.01.018-.022.029-.032.169-.171.33-.348.483-.534.073-.09.137-.183.206-.276.082-.11.168-.217.244-.331.073-.11.137-.223.205-.336.062-.103.127-.205.183-.311.062-.116.115-.236.171-.354.051-.109.106-.217.153-.329.048-.116.086-.235.129-.353.043-.12.088-.238.127-.361.036-.118.062-.238.092-.357.031-.125.066-.248.092-.375.028-.139.044-.28.064-.421.015-.109.036-.216.047-.326.025-.254.038-.509.038-.765V7.72c-.006-.255-.02-.511-.044-.766zM69.607 15.433h379.969l-18.802 18.802H88.41L69.607 15.433zm0 259.678l18.803-18.802h342.365l18.803 18.802H69.607zm201.949-79.963l-9.489-12.695 61.956-60.177c1.003-.974 2.574-.975 3.521-.063l98.711 97.419v21.243h-325.32l92.358-119.457c.685-.79 1.546-.915 1.998-.882.468.01 1.35.158 2.003 1.032l61.9 82.819a7.717 7.717 0 0 0 12.362-9.239zm188.935 69.05l-18.803-18.803v-138.95c0-4.263-3.455-7.717-7.717-7.717s-7.717 3.454-7.717 7.717v91.505l-87.928-86.778a17.929 17.929 0 0 0-25.056.033l-60.52 58.782-43.095-57.658a17.9 17.9 0 0 0-14.018-7.222c-5.556-.135-10.794 2.276-14.328 6.585-.046.057-.093.114-.138.172L92.93 225.995V49.668h333.325v25.911c0 4.263 3.455 7.717 7.717 7.717s7.717-3.454 7.717-7.717V45.148l18.803-18.803v237.853zm2.637 118.511h-6.257c6.982-7.958 11.228-18.373 11.228-29.767 0-24.924-20.276-45.2-45.2-45.2-24.924 0-45.2 20.276-45.2 45.2 0 11.394 4.246 21.808 11.228 29.767h-6.257c-11.059 0-20.057 8.996-20.057 20.056s8.998 20.056 20.057 20.056h2.53v9.204H126.798v-4.915h2.53c11.059 0 20.057-8.996 20.057-20.056s-8.998-20.056-20.057-20.056h-6.257c6.982-7.958 11.228-18.373 11.228-29.766 0-24.924-20.276-45.2-45.2-45.2-24.924 0-45.2 20.276-45.2 45.2 0 11.394 4.246 21.808 11.228 29.766H48.87c-11.059 0-20.056 8.997-20.056 20.056s8.998 20.056 20.056 20.056h2.531v15.116c0 4.263 3.455 7.717 7.717 7.717s7.717-3.454 7.717-7.717V427.11h44.529v66.884a2.575 2.575 0 0 1-2.572 2.572H69.408a2.575 2.575 0 0 1-2.572-2.572v-15.756c0-4.263-3.455-7.717-7.717-7.717s-7.717 3.454-7.717 7.717v15.756c0 9.928 8.078 18.005 18.005 18.005h39.384c9.928 0 18.005-8.078 18.005-18.005v-19.531H385.2v15.242c0 9.928 8.078 18.005 18.005 18.005h39.384c9.928 0 18.005-8.078 18.005-18.005V422.82h2.531c11.059 0 20.056-8.997 20.056-20.056s-8.995-20.055-20.053-20.055zM89.099 327.465c16.414 0 29.766 13.354 29.766 29.766 0 16.413-13.353 29.767-29.766 29.767-16.414 0-29.767-13.354-29.767-29.767.001-16.412 13.354-29.766 29.767-29.766zm29.982 84.212h-70.21a4.628 4.628 0 0 1-4.623-4.623 4.628 4.628 0 0 1 4.623-4.623h80.456a4.629 4.629 0 0 1 4.624 4.623 4.629 4.629 0 0 1-4.624 4.623h-10.246zm266.121 47.353H126.798v-11.571h258.404v11.571zM422.9 323.176c16.414 0 29.767 13.354 29.767 29.766 0 16.413-13.353 29.767-29.767 29.767s-29.766-13.354-29.766-29.767c-.001-16.412 13.352-29.766 29.766-29.766zm22.263 166.529a2.575 2.575 0 0 1-2.572 2.572h-39.384a2.575 2.575 0 0 1-2.572-2.572v-66.883h44.529v66.883zm17.965-82.317h-80.457a4.629 4.629 0 0 1-4.624-4.623 4.629 4.629 0 0 1 4.624-4.623h80.456a4.628 4.628 0 0 1 4.623 4.623 4.628 4.628 0 0 1-4.622 4.623z"/><path d="M253.455 57.595c-15.589 0-28.272 12.683-28.272 28.273s12.683 28.273 28.272 28.273c15.59 0 28.273-12.683 28.273-28.273-.001-15.59-12.684-28.273-28.273-28.273zm0 41.113c-7.079 0-12.838-5.76-12.838-12.839s5.76-12.839 12.838-12.839c7.08 0 12.839 5.76 12.839 12.839s-5.76 12.839-12.839 12.839z"/></symbol><symbol id="007-instagram-color" viewBox="0 0 551.034 551.034"><linearGradient id="SVGID_1_" gradientUnits="userSpaceOnUse" x1="275.517" y1="4.57" x2="275.517" y2="549.72" gradientTransform="matrix(1 0 0 -1 0 554)"><stop offset="0" stop-color="#e09b3d"/><stop offset=".3" stop-color="#c74c4d"/><stop offset=".6" stop-color="#c21975"/><stop offset="1" stop-color="#7024c4"/></linearGradient><path d="M386.878 0H164.156C73.64 0 0 73.64 0 164.156v222.722c0 90.516 73.64 164.156 164.156 164.156h222.722c90.516 0 164.156-73.64 164.156-164.156V164.156C551.033 73.64 477.393 0 386.878 0zM495.6 386.878c0 60.045-48.677 108.722-108.722 108.722H164.156c-60.045 0-108.722-48.677-108.722-108.722V164.156c0-60.046 48.677-108.722 108.722-108.722h222.722c60.045 0 108.722 48.676 108.722 108.722v222.722z" fill="url(#SVGID_1_)"/><linearGradient id="SVGID_2_" gradientUnits="userSpaceOnUse" x1="275.517" y1="4.57" x2="275.517" y2="549.72" gradientTransform="matrix(1 0 0 -1 0 554)"><stop offset="0" stop-color="#e09b3d"/><stop offset=".3" stop-color="#c74c4d"/><stop offset=".6" stop-color="#c21975"/><stop offset="1" stop-color="#7024c4"/></linearGradient><path d="M275.517 133C196.933 133 133 196.933 133 275.516s63.933 142.517 142.517 142.517S418.034 354.1 418.034 275.516 354.101 133 275.517 133zm0 229.6c-48.095 0-87.083-38.988-87.083-87.083s38.989-87.083 87.083-87.083c48.095 0 87.083 38.988 87.083 87.083 0 48.094-38.989 87.083-87.083 87.083z" fill="url(#SVGID_2_)"/><linearGradient id="SVGID_3_" gradientUnits="userSpaceOnUse" x1="418.31" y1="4.57" x2="418.31" y2="549.72" gradientTransform="matrix(1 0 0 -1 0 554)"><stop offset="0" stop-color="#e09b3d"/><stop offset=".3" stop-color="#c74c4d"/><stop offset=".6" stop-color="#c21975"/><stop offset="1" stop-color="#7024c4"/></linearGradient><circle cx="418.31" cy="134.07" r="34.15" fill="url(#SVGID_3_)"/></symbol><symbol id="008-instagram" viewBox="0 0 512 512"><path d="M114.759 512h61.103l-96.414-61.793-79.25-46.309C3.659 464.09 53.716 512 114.759 512z" fill="#fde494"/><path d="M335.448 476.69l-69.006-17.655H114.759c-34.072 0-61.793-27.721-61.793-61.793v-33.876l-26.483-28.42L0 339.628v57.613c0 2.236.072 4.454.198 6.657L175.862 512h208.767l-49.181-35.31z" fill="#fea150"/><path d="M441.655 440.14c-11.244 11.637-26.993 18.894-44.414 18.894H266.442L384.629 512h12.612c41.202 0 77.396-21.829 97.64-54.527l-27.022-16.094-26.204-1.239z" fill="#ff5d4a"/><path d="M459.034 326.014v71.228c0 16.652-6.633 31.775-17.379 42.899l53.227 17.333C505.728 439.954 512 419.318 512 397.241v-62.805l-27.396-15.391-25.57 6.969z" fill="#e45261"/><path fill="#ff4d95" d="M512 149.19l-28.203-6.716-24.763 14.826v168.714L512 334.436z"/><path d="M512 114.759c0-57.633-42.708-105.473-98.136-113.55L344.43 30.101l-35.183 22.865h87.994c34.072 0 61.793 27.721 61.793 61.793V157.3L512 149.19v-34.431z" fill="#cb319c"/><path d="M317.732 0L252.05 24.636l-51.805 28.33h109.002L413.864 1.208A115.22 115.22 0 0 0 397.241 0h-79.509z" fill="#8a3293"/><path d="M256 406.069c18.358 0 35.954-3.32 52.226-9.38l-86.02-39.047-91.178-18.657c26.918 40.405 72.885 67.084 124.972 67.084z" fill="#ff5d4a"/><path d="M329.153 305.358c-15.883 23.465-42.748 38.918-73.153 38.918-40.273 0-74.308-27.118-84.867-64.046l-23.682-14.801-40.847 4.538a149.134 149.134 0 0 0 24.425 69.017l177.198 57.705c38.303-14.264 69.237-43.757 85.458-81.068l-31.753-16.085-32.779 5.822z" fill="#e45261"/><path d="M167.724 256c0-21.878 8.018-41.907 21.247-57.346l-37.658-5.268-38.25 16.892A149.478 149.478 0 0 0 105.931 256c0 4.712.244 9.365.671 13.966l64.53 10.262A87.974 87.974 0 0 1 167.724 256zm238.345 0c0-32.138-10.159-61.946-27.428-86.39l-37.397-5.308-38.418 16.917c24.873 15.631 41.45 43.298 41.45 74.781 0 18.27-5.58 35.261-15.123 49.358l64.531 10.262A149.162 149.162 0 0 0 406.069 256z" fill="#ff4d95"/><path d="M256 167.724c17.194 0 33.242 4.959 46.826 13.495l75.815-11.609c-27.196-38.493-72.03-63.679-122.641-63.679-66.81 0-123.554 43.889-142.937 104.345l75.908-11.624c16.202-18.91 40.232-30.928 67.029-30.928zm141.241-17.655c19.47 0 35.31-15.84 35.31-35.31s-15.84-35.31-35.31-35.31c-19.47 0-35.31 15.84-35.31 35.31s15.84 35.31 35.31 35.31z" fill="#cb319c"/><path fill="#ff5d4a" d="M52.966 313.564L27.47 300.847 0 296.316v43.313l52.966 23.737z"/><path fill="#e45261" d="M0 253.014v43.302l52.966 17.248v-52.127l-27.52-9.894z"/><path fill="#ff4d95" d="M52.966 219.479l-27.217-.246L0 227.59v25.424l52.966 8.423z"/><path fill="#cb319c" d="M52.966 179.757l-28.055 2.846L0 205.962v21.628l52.966-8.111z"/><path fill="#8a3293" d="M0 205.962l52.966-26.205v-60.395L21.9 122.333 0 143.241z"/><path d="M205.059 0L84.206 46.481 1.387 96.928A115.22 115.22 0 0 0 0 114.759v28.482l52.966-23.878v-4.605c0-34.072 27.721-61.793 61.793-61.793h85.487L317.732 0H205.059z" fill="#523494"/><path d="M114.759 0C57.545 0 9.978 42.088 1.387 96.928L205.059 0h-90.3z" fill="#2d2d87"/></symbol><symbol id="008-rock" viewBox="-106 0 512 512"><path d="M75 151h45v90H75zM225 0h45v151h-45zm0 0"/><path d="M150.188 181l1.593 20.121c1.754 22.133 19.965 39.356 42.164 39.867.352.008 31.055.012 31.055.012v30c-24.813 0-45 20.188-45 45v75h-30V271H45V31H0v319.54l60 90V512h180v-71.46l60-90V181zm0 0"/><path d="M150 121h45v30h-45zm0 0"/></symbol><symbol id="009-graduate-cap" viewBox="0 0 31.771 31.771"><path d="M31.771 20.319c0-.474-.279-.87-.676-1.066V11.9a.224.224 0 0 0 .145-.214.225.225 0 0 0-.149-.21L15.92 6.125a.898.898 0 0 0-.601 0L.15 11.477a.226.226 0 1 0-.006.424l15.148 5.896a.913.913 0 0 0 .655 0l14.102-5.492v6.947a1.19 1.19 0 0 0-.675 1.065c0 .492.3.919.729 1.102-.429.847-.729 2.585-.729 3.081a1.198 1.198 0 0 0 2.395 0c0-.496-.301-2.234-.729-3.081.43-.181.731-.608.731-1.1z"/><path d="M4.888 14.87l.002 4.009c0 3.158 4.753 5.729 10.73 5.89 5.976-.161 10.729-2.729 10.729-5.89 0-.315 0-2.312.002-4.009l-10.406 4.051a.903.903 0 0 1-.655 0L4.888 14.87z"/></symbol><symbol id="009-instagram-1" viewBox="0 0 512 512"><linearGradient id="SVGID_1_" gradientUnits="userSpaceOnUse" x1="-46.004" y1="634.121" x2="-32.933" y2="647.192" gradientTransform="matrix(32 0 0 -32 1519 20757)"><stop offset="0" stop-color="#ffc107"/><stop offset=".507" stop-color="#f44336"/><stop offset=".99" stop-color="#9c27b0"/></linearGradient><path d="M352 0H160C71.648 0 0 71.648 0 160v192c0 88.352 71.648 160 160 160h192c88.352 0 160-71.648 160-160V160C512 71.648 440.352 0 352 0zm112 352c0 61.76-50.24 112-112 112H160c-61.76 0-112-50.24-112-112V160C48 98.24 98.24 48 160 48h192c61.76 0 112 50.24 112 112v192z" fill="url(#SVGID_1_)"/><linearGradient id="SVGID_2_" gradientUnits="userSpaceOnUse" x1="-42.297" y1="637.828" x2="-36.64" y2="643.485" gradientTransform="matrix(32 0 0 -32 1519 20757)"><stop offset="0" stop-color="#ffc107"/><stop offset=".507" stop-color="#f44336"/><stop offset=".99" stop-color="#9c27b0"/></linearGradient><path d="M256 128c-70.688 0-128 57.312-128 128s57.312 128 128 128 128-57.312 128-128-57.312-128-128-128zm0 208c-44.096 0-80-35.904-80-80 0-44.128 35.904-80 80-80s80 35.872 80 80c0 44.096-35.904 80-80 80z" fill="url(#SVGID_2_)"/><linearGradient id="SVGID_3_" gradientUnits="userSpaceOnUse" x1="-35.546" y1="644.579" x2="-34.792" y2="645.333" gradientTransform="matrix(32 0 0 -32 1519 20757)"><stop offset="0" stop-color="#ffc107"/><stop offset=".507" stop-color="#f44336"/><stop offset=".99" stop-color="#9c27b0"/></linearGradient><circle cx="393.6" cy="118.4" r="17.056" fill="url(#SVGID_3_)"/></symbol><symbol id="010-wedding-ring" viewBox="0 0 512 512"><path d="M321.473 42.621C312 33.14 299.401 27.918 285.996 27.919c-10.958 0-21.375 3.489-29.985 9.941-8.619-6.453-19.042-9.941-30-9.941-13.405 0-26.006 5.221-35.478 14.7-19.559 19.557-19.56 51.387 0 70.958l59.995 59.977c1.515 1.514 3.5 2.272 5.485 2.272s3.971-.758 5.485-2.273l59.974-59.979c19.556-19.569 19.555-51.399.001-70.953zM310.5 102.606l-54.487 54.492-54.507-54.491c-13.512-13.519-13.513-35.507 0-49.018 6.543-6.549 15.246-10.155 24.505-10.155 9.26 0 17.967 3.607 24.518 10.157a7.755 7.755 0 0 0 5.485 2.272h.003a7.755 7.755 0 0 0 5.486-2.276c6.537-6.548 15.236-10.153 24.493-10.153 9.258 0 17.96 3.606 24.504 10.157 13.509 13.508 13.508 35.497 0 49.015zm48.934 76.343c-38.782 0-75.242 14.313-103.496 40.467-27.203-25.104-63.525-40.467-103.372-40.467C68.441 178.949 0 247.39 0 331.515s68.441 152.566 152.566 152.566c38.78 0 75.24-14.313 103.496-40.467 27.203 25.104 63.525 40.467 103.373 40.467 84.125 0 152.565-68.44 152.565-152.566s-68.44-152.566-152.566-152.566zM152.565 468.562c-75.569.004-137.05-61.477-137.05-137.047s61.481-137.051 137.051-137.051 137.05 61.481 137.05 137.051c0 24.087-6.222 47.418-18.076 68.078a110.393 110.393 0 0 1-6.615-9.488 125.938 125.938 0 0 0 10.023-25.675c2.876-10.685 4.324-21.763 4.324-32.913 0-17.108-3.352-33.699-9.961-49.317a126.1 126.1 0 0 0-24.159-37.171c-.043-.046-.084-.093-.129-.138a129.043 129.043 0 0 0-2.864-2.969c-11.636-11.636-25.186-20.77-40.277-27.152-15.619-6.609-32.209-9.961-49.317-9.961a127.345 127.345 0 0 0-30.948 3.806 125.97 125.97 0 0 0-28.175 10.809 126.209 126.209 0 0 0-24.473 16.871 127.495 127.495 0 0 0-19.828 22 7.691 7.691 0 0 0-1.314 5.792 7.707 7.707 0 0 0 3.155 5.027 7.736 7.736 0 0 0 4.478 1.427 7.793 7.793 0 0 0 6.341-3.269c10.085-14.211 23.531-26.023 38.881-34.133a110.543 110.543 0 0 1 24.721-9.474c8.833-2.224 17.967-3.341 27.162-3.341 15.019 0 29.582 2.937 43.277 8.73 12.557 5.31 23.892 12.827 33.761 22.314-14.887 24.059-22.735 51.627-22.735 80.146 0 29.366 8.348 56.815 22.783 80.115a112.092 112.092 0 0 1-12.574 10.453 111.064 111.064 0 0 1-19.456 11.119c-14.202 6.3-29.365 9.506-45.056 9.506-13.55 0-26.79-2.41-39.346-7.168a110.555 110.555 0 0 1-28.941-16.271 111.8 111.8 0 0 1-22.735-23.862c-13.199-18.774-20.17-40.868-20.17-63.892 0-13.312 2.327-26.334 6.92-38.695 1.489-4.013-.569-8.482-4.582-9.971a7.777 7.777 0 0 0-2.7-.486 7.795 7.795 0 0 0-7.272 5.058c-5.233 14.088-7.881 28.93-7.881 44.094.01 26.241 7.954 51.417 22.993 72.797a126.951 126.951 0 0 0 25.9 27.203 126.018 126.018 0 0 0 32.975 18.535c14.315 5.42 29.396 8.172 44.839 8.172l.021-.052v.052c17.853 0 35.126-3.652 51.334-10.839a127.008 127.008 0 0 0 34.676-22.847 154.347 154.347 0 0 0 6.602 7.984c-25.335 23.296-57.95 36.043-92.633 36.043zm111.193-137.045c0 9.806-1.273 19.528-3.786 28.889a110.358 110.358 0 0 1-3.982 11.982c-5.141-12.99-7.747-26.727-7.747-40.871a111.53 111.53 0 0 1 3.785-28.9 110.566 110.566 0 0 1 3.977-11.97c5.147 12.996 7.753 26.731 7.753 40.87zm95.676 137.049c-75.57 0-137.051-61.481-137.051-137.051 0-24.086 6.222-47.418 18.075-68.078a110.901 110.901 0 0 1 6.608 9.481 126.3 126.3 0 0 0-10.016 25.676 126.8 126.8 0 0 0-4.323 32.923c0 17.108 3.351 33.699 9.961 49.317 5.832 13.791 13.968 26.289 24.205 37.22.021.022.04.046.062.067a131.028 131.028 0 0 0 2.885 2.991c11.636 11.636 25.186 20.77 40.277 27.152 15.619 6.609 32.21 9.961 49.328 9.961 10.468 0 20.884-1.283 30.947-3.817a126.003 126.003 0 0 0 28.166-10.798 127.134 127.134 0 0 0 24.472-16.871 127.5 127.5 0 0 0 19.829-22c2.472-3.496 1.645-8.347-1.841-10.819a7.77 7.77 0 0 0-10.819 1.842c-10.085 14.211-23.531 26.013-38.892 34.133a110.306 110.306 0 0 1-24.71 9.475 111.836 111.836 0 0 1-27.162 3.34c-15.019 0-29.583-2.947-43.288-8.74-12.545-5.311-23.88-12.827-33.749-22.312 14.886-24.058 22.733-51.624 22.733-80.142 0-29.368-8.35-56.819-22.787-80.12a112.449 112.449 0 0 1 12.578-10.456 111.896 111.896 0 0 1 19.456-11.119c14.212-6.299 29.366-9.495 45.057-9.495 13.549 0 26.789 2.41 39.346 7.158.051.021.103.041.144.051l.021.011a111.17 111.17 0 0 1 28.879 16.291 111.77 111.77 0 0 1 22.673 23.862c13.178 18.753 20.138 40.826 20.128 63.819 0 13.312-2.327 26.334-6.92 38.695a7.702 7.702 0 0 0 .228 5.926 7.656 7.656 0 0 0 4.343 4.044c.88.321 1.78.487 2.7.487a7.799 7.799 0 0 0 7.282-5.059c5.233-14.108 7.882-28.94 7.882-44.094-.01-26.242-7.955-51.417-22.994-72.807a126.852 126.852 0 0 0-25.889-27.193 126.493 126.493 0 0 0-32.986-18.547c-14.315-5.419-29.406-8.161-44.838-8.161h-.01c-17.854 0-35.126 3.641-51.335 10.84a125.514 125.514 0 0 0-22.186 12.671 127.38 127.38 0 0 0-12.499 10.172 153.855 153.855 0 0 0-6.603-7.984c25.333-23.297 57.949-36.045 92.633-36.045 75.57 0 137.051 61.481 137.051 137.051 0 75.571-61.481 137.052-137.051 137.052z"/></symbol><symbol id="011-band" viewBox="0 0 511.999 511.999"><path d="M259.858 411.656c3.161 8.504 11.221 13.762 19.79 13.762 2.442 0 4.927-.427 7.351-1.328 10.929-4.062 16.496-16.214 12.433-27.142l-16.03-43.134h-40.766v-16.476h47.623c6.065 0 10.982-4.917 10.982-10.982 0-5.988-4.858-10.982-10.982-10.982v-56.182c1.788 0 3.47-.437 4.962-1.194.482-4.494 2.509-8.759 5.803-11.962-1.012-5.036-5.453-8.808-10.765-8.808h-78.244l49.086-24.956a28.5 28.5 0 0 1-19.426-2.146l-36.195 28.357c1.81 6.67 2.693 13.713 2.42 20.711-.634 16.309-7.456 31.157-19.91 40.915-5.741 4.498-12.287 7.59-19.246 9.272l15.37 27.961h36.555v82.541l-14.545 14.547 1.396 29.668 24.14-24.142 50.267 50.28c4.29 4.289 11.244 4.29 15.532.002 4.289-4.288 4.29-11.242.002-15.532l-54.827-54.842v-54.549l17.224 46.341zm180.295-139.975l-5.45-.382v79.255l23.06-48.794c6.342-13.423-2.814-29.041-17.61-30.079zm-121.003 7.166a19.413 19.413 0 0 1-12.416-1.053v26.611c1.703 1.282 3.3 3.325 4.588 4.865h68.469v-45.384l-60.641 14.961zM355.157 3.322a5.498 5.498 0 0 0-7.226-2.871l-86.207 37.171c-9.089-2.874-18.85 2.008-21.947 11.074l-24.766 72.535a17.534 17.534 0 0 0-.246 10.56 28.631 28.631 0 0 1 10.16-4.531 28.319 28.319 0 0 1 7.901-9.668 28.61 28.61 0 0 1 17.568-6.064c1.682 0 3.336.162 4.957.443l17.723-51.907a17.55 17.55 0 0 0 .929-5.807l78.785-43.956c2.419-1.361 3.493-4.371 2.369-6.979zm151.859 113.203c-3.824-6.484-11.157-9.596-18.159-8.382l-53.809-81.317c-1.541-2.31-4.623-3.154-7.137-1.836a5.498 5.498 0 0 0-2.318 7.422l44.724 85.33-40.878 24.104c-56.959 1.064-54.428 1.155-54.428 1.155l-72.608-1.152c.405 2.39.524 4.809.369 7.21a31.223 31.223 0 0 1-2.538 10.508c3.344 8.933 1.959 19.058-3.678 26.793a27.772 27.772 0 0 1-6.091 6.135l-.448 28.259h.244c11.11 0 20.692 6.636 25.01 16.15l19.558-11.682a194.995 194.995 0 0 1 45.072-19.696 27.247 27.247 0 0 1 3.735-11.606l.255-16.031 50.831-.95a17.587 17.587 0 0 0 8.606-2.436l57.471-33.889c8.369-4.935 11.153-15.721 6.217-24.089z"/><circle cx="338.657" cy="92.15" r="36.46"/><path d="M507.242 212.881a2.95 2.95 0 0 0-2.775-2.669l-35.233-1.927a178.457 178.457 0 0 0-51.005 4.574v-4.951c0-6.162-5.052-10.982-10.982-10.982-6.059 0-10.982 4.953-10.982 10.982v10.345c-17.705 4.368-33.929 9.725-52.988 21.11l-30.293 18.094a2.949 2.949 0 0 0 2.218 5.396l81.062-20.001v162.214l-69.642 69.635c-4.29 4.288-4.29 11.242-.001 15.531 4.288 4.289 11.243 4.29 15.531 0l54.112-54.105v13.484c0 6.065 4.917 10.982 10.982 10.982 6.065 0 10.982-4.917 10.982-10.982v-13.484l54.104 54.105c4.29 4.289 11.244 4.288 15.532 0 4.289-4.289 4.289-11.243 0-15.531l-69.636-69.636V237.432l86.784-21.412a2.948 2.948 0 0 0 2.23-3.139zM48.717 366.536v122.532c0 12.664 10.266 22.931 22.931 22.931 12.665 0 22.931-10.267 22.931-22.931V379.693c-16.183.427-32.054-4.582-45.862-13.157zm144.407 121.453l-5.002-106.32a22.945 22.945 0 0 0-2.81-9.968l-28.726-52.256c-1.605 19.34-10.315 36.824-25.841 48.197l11.815 21.493 4.753 101.01c.594 12.635 11.314 22.421 23.984 21.828 12.649-.595 22.423-11.332 21.827-23.984z"/><circle cx="99.523" cy="84.17" r="39.605"/><path d="M277.79 158.527c3.222-2.524 1.174-.915 1.993-1.572 5.538-4.46 6.191-12.392 2.033-17.7-.016-.02-.033-.037-.05-.057-4.233-5.341-12.115-6.465-17.693-2.157-.023.018-.048.032-.071.05l-1.864 1.46-3.751-4.788c-.013-.017-.028-.03-.041-.047-3.508-4.419-9.882-5.071-14.205-1.686l-.004.003c-4.412 3.457-5.186 9.837-1.729 14.249l3.752 4.788-3.195 2.503-3.752-4.788-.006-.007c-3.445-4.388-9.834-5.177-14.244-1.724-4.412 3.457-5.187 9.837-1.731 14.251l3.752 4.788-59.056 46.267-.06-.049c-23.329-19.815-53.325-16.376-63.213 6.978a27.907 27.907 0 0 1-11.184 12.918l21.76 16.541c7.321-6.033 17.917-4.681 23.578 2.544 5.642 7.202 4.378 17.613-2.824 23.255-3.392 2.657-7.496 3.764-11.478 3.458-.705 6.163-2.943 12.086-6.621 17.294-5.795 8.207-14.625 13.669-24.381 15.318l3.871 4.941c3.457 4.412 2.682 10.793-1.729 14.249-4.414 3.457-10.792 2.683-14.25-1.731l-22.261-28.412-38.815-27.409c-4.892 24.919 6.99 51.867 25.603 69.15 20.8 19.267 52.882 28.003 75.089 10.606 10.499-8.225 16.275-20.629 17.331-34.491.98-12.868 10.666-23.376 23.362-25.41 24.064-3.856 36.138-31.238 21.87-59.776l59.056-46.267 3.752 4.788a.065.065 0 0 1 .007.008c3.646 4.642 10.607 5.274 15.011 1.055l.016-.013c3.665-3.524 4.219-9.391.946-13.569l-3.752-4.788 3.195-2.503 3.752 4.788c3.396 4.335 9.774 5.237 14.25 1.731 4.407-3.452 5.192-9.833 1.731-14.251l-3.75-4.786z"/><path d="M150.923 136.401H48.129c-24.813 0-45.099 20.185-45.222 44.939l-.366 45.585v.016c-.054 6.805 3.147 12.528 8.083 16.013l65.644 46.354c8.599 6.072 20.534 4.05 26.634-4.589 6.088-8.621 4.033-20.545-4.588-26.633l-57.479-40.587.288-35.911v-.002a3.791 3.791 0 0 1 7.582.021v18.992l23.385 16.513c2.259.217 6.407.823 6.931.823a9.477 9.477 0 0 0 8.739-5.795c3.447-8.14 8.635-14.963 15.423-20.28 9.034-7.079 20.172-10.819 32.208-10.818 4.848 0 9.722.608 14.534 1.778v-.147a3.934 3.934 0 0 1 7.528-1.6c.554 1.244.898 2.702.888 4.4a71.685 71.685 0 0 1 8.86 4.154l26.144-20.483c-7.166-20.148-23.135-32.743-42.422-32.743z"/></symbol><symbol id="012-star" viewBox="0 0 475.075 475.075"><path d="M475.075 186.573c0-7.043-5.328-11.42-15.992-13.135L315.766 152.6 251.529 22.694c-3.614-7.804-8.281-11.704-13.99-11.704-5.708 0-10.372 3.9-13.989 11.704L159.31 152.6 15.986 173.438C5.33 175.153 0 179.53 0 186.573c0 3.999 2.38 8.567 7.139 13.706l103.924 101.068L86.51 444.096c-.381 2.666-.57 4.575-.57 5.712 0 3.997.998 7.374 2.996 10.136 1.997 2.766 4.993 4.142 8.992 4.142 3.428 0 7.233-1.137 11.42-3.423l128.188-67.386 128.197 67.386c4.004 2.286 7.81 3.423 11.416 3.423 3.819 0 6.715-1.376 8.713-4.142 1.992-2.758 2.991-6.139 2.991-10.136 0-2.471-.096-4.374-.287-5.712l-24.555-142.749 103.637-101.068c4.956-4.949 7.427-9.519 7.427-13.706z"/></symbol><symbol id="mail" viewBox="0 0 44 44"><path d="M43 6H1a1 1 0 0 0-1 1v30a1 1 0 0 0 1 1h42a1 1 0 0 0 1-1V7a1 1 0 0 0-1-1zm-1 27.581L29.612 21.194l-1.414 1.414L41.59 36H2.41l13.392-13.392-1.414-1.414L2 33.581V8h40v25.581z"/><path d="M39.979 8L22 25.979 4.021 8H2v.807L21.293 28.1a.999.999 0 0 0 1.414 0L42 8.807V8h-2.021z"/></symbol><symbol id="play" viewBox="0 0 487.622 487.622"><circle cx="243.811" cy="243.811" r="243.811" fill="#cf6f55"/><path d="M479.621 305.946L169.686 119.431V368.19L332.61 470.937c71.88-28.124 127.14-89.383 147.011-164.991z" fill="#c06046"/><path fill="#fff" d="M375.699 243.811L169.686 368.19V119.431z"/></symbol><symbol id="telegram" viewBox="0 -31 512 512"><path d="M123.195 260.738l63.68 159.188 82.902-82.903L411.918 450 512 0 0 213.266zm242.5-131.629L208.98 272.051l-19.52 73.566-36.058-90.164zm0 0"/></symbol></svg>